<?xml version="1.0" encoding="utf-8"?>
<!-- Generator: Adobe Illustrator 16.0.0, SVG Export Plug-In . SVG Version: 6.00 Build 0)  -->
<!DOCTYPE svg PUBLIC "-//W3C//DTD SVG 1.1//EN" "http://www.w3.org/Graphics/SVG/1.1/DTD/svg11.dtd">
<svg version="1.1" id="Layer_1" xmlns="http://www.w3.org/2000/svg" xmlns:xlink="http://www.w3.org/1999/xlink" x="0px" y="0px"
	 width="285.2px" height="166px" viewBox="0 0 285.2 166" enable-background="new 0 0 285.2 166" xml:space="preserve">
<g>
	<path d="M62,47.8c0.5,4.3,0.9,8.4,1.3,12.6c-1.4,0.6-2.2,0.1-3.1-1.2c-1.6-2.5-3.4-5-5.5-7.1c-2.9-2.9-6.5-3.9-10.5-2.8
		c-2.8,0.8-4.7,2.6-5.5,5.4c-1.1,3.6,0.3,6.8,3.9,8c3.8,1.3,7.7,2,11.6,2.7c4.7,0.9,8.8,2.7,11.1,7.1c4.8,8.9-1.9,20.3-11.9,20.2
		c-2.7,0-5.5-0.9-8.2-1.6c-2.8-0.8-5.5-1.8-8.1,0.7c-0.3,0.3-1.2,0.2-1.9,0.3V76.6c1.5-0.6,2.1-0.1,2.6,1.3c1.5,4,3.6,7.6,6.9,10.3
		c3.2,2.6,6.8,3.6,10.9,2.5c3.9-1.1,6.3-4.3,6.4-8.1c0.1-3.9-1.9-7-5.9-8.2c-3.3-1-6.8-1.5-10.2-2.2c-5.2-1.1-9.4-3.3-10.8-8.8
		c-2.5-9.3,4.9-17.3,14.5-15.8c1.1,0.2,2.2,0.5,3.3,0.6c2.1,0,4.2-0.1,6.3-0.2C60.1,47.9,60.9,47.8,62,47.8 M36.1,57.9
		c-0.8,6.9,2.7,11.8,9.3,13.2c3.8,0.8,7.7,1.3,11.4,2.4c5,1.5,7.1,5.4,6.3,10.4c0,0.3,0,0.6,0,1.4c0.4-0.7,0.6-0.9,0.7-1.2
		c2.2-4.9-0.1-10.4-5.6-12.2c-3.5-1.2-7.3-1.8-10.9-2.6C40,67.9,37.4,65.4,36.1,57.9 M39.9,88.3c-1.1-1.7-2.2-3.4-3.4-5.1v6.4
		C37.7,89.1,38.7,88.8,39.9,88.3 M59.4,55.4c0.1,0,0.2-0.1,0.3-0.1c-0.3-1.6-0.6-3.2-0.9-4.7h-3.6C56.6,52.2,58,53.8,59.4,55.4"/>
	<path d="M159.8,82.3c-1.1,3.3-2.2,6.5-3.4,9.7h-34c-0.1-0.2-0.2-0.3-0.3-0.5c0.4-0.3,0.7-0.8,1.2-0.9c5.1-1.1,5.1-1.1,5.1-6.4
		c0-8.2,0-16.4,0-24.6c0-3.8-0.6-4.4-4.3-4.9c-1.7-0.2-1.7-0.2-1.6-1.7h2.8c9.3,0,18.7,0,28,0c1.5,0,2.1,0.5,2.5,1.8
		c0.8,2.3,1.7,4.6,2.5,6.8c-0.1,0.2-0.2,0.4-0.3,0.5c-0.8-0.4-1.8-0.6-2.4-1.2c-4.7-4.5-10.1-6.9-16.6-6.1c-2.6,0.3-3.5,1.4-3.5,4
		c0,4.1,0,8.1,0,12.8c3.2-0.3,6.2-0.3,9.1-1c2.7-0.6,3.5-3.1,3.8-5.8h1.7v14.3c-1,0.3-1.5,0.2-1.8-1c-0.8-3.8-2.5-5.1-6.4-5.2
		c-2.1,0-4.1,0-6.5,0c0,1.6,0,3.1,0,4.6c0,3.1,0,6.3,0.1,9.4c0.1,2.3,1,3.2,3.3,3.6c7.3,1.2,13.1-1.3,17.7-7
		C157.7,81.9,157.8,82,159.8,82.3 M128.5,90.4c1.9-0.5,2.5-1.2,2.5-3.7c0.1-4.1,0-8.1,0-12.2c0-5.4,0-10.8,0-16.1
		c0-2.2-0.6-2.9-2.4-3.1c0.2,1.4,0.6,2.9,0.6,4.4c0.1,8.6,0.1,17.3,0,25.9C129.2,87.1,128.8,88.7,128.5,90.4 M149.6,90.4
		c4.1,0.6,5.1-0.1,5.2-3.6C153.2,87.9,151.5,89.1,149.6,90.4 M148.2,54.7c2.1,1.2,3.8,2.2,5.6,3.2C152.8,54.4,152.7,54.4,148.2,54.7
		 M147.8,73.8v-4c-1.1,0.7-2.1,1.4-3,2C145.8,72.5,146.7,73.2,147.8,73.8"/>
	<path d="M97.7,92H78c-0.1-0.1-0.3-0.3-0.4-0.4c0.4-0.3,0.7-0.9,1.2-1c5.2-0.9,5.3-1,5.3-6.2c0-8.3,0-16.5-0.1-24.8
		c0-3.8-0.8-4.5-4.6-4.9c-1.5-0.2-1.5-0.2-1.4-1.8c8.4,0.2,16.9,0.2,25.3,0.8c5.7,0.4,9.8,5.2,9.7,10.4c0,3.7-1.8,6.4-5.1,8.2
		c-3.3,1.8-6.9,2.2-10.5,2.3c-2.1,0-4.1,0-6.2,0c0,4.5-0.1,9,0.1,13.4c0,1.5,1.3,2.2,2.7,2.4c1,0.1,2,0.1,3,0.4
		c0.5,0.1,0.8,0.6,1.2,0.9C98,91.7,97.9,91.9,97.7,92 M91.2,73.1c2.7-0.2,5.3-0.3,7.9-0.7c2.5-0.4,4.6-1.6,5.5-4
		c1.5-3.7,1.5-7.4-1-10.7c-2.5-3.2-6-3.4-9.7-2.9c-1.6,0.2-2.6,1.2-2.7,2.7C91.1,62.6,91.2,67.6,91.2,73.1 M84.1,90.5
		c2-0.3,2.6-0.9,2.6-3.2c0-9.5,0-19,0-28.5c0-0.7-0.1-1.4-0.2-2c-0.4-1.3-1.2-1.9-2.2-1.8c0.2,1.8,0.6,3.5,0.6,5.2
		c0.1,8.8,0.1,17.5,0,26.3C84.9,87.7,84.4,89.1,84.1,90.5 M102.5,55.3c5,4.1,5.3,12.6,0.5,16.7c3.1-0.7,4.9-3.1,5.1-6.9
		C108.4,59.6,107,56.9,102.5,55.3"/>
	<path d="M205.2,82.3c-1.2,3.3-2.4,6.5-3.6,9.7h-33.3c-0.1-0.1-0.3-0.2-0.4-0.4c0.4-0.4,0.7-0.9,1.1-1c0.6-0.2,1.2-0.2,1.8-0.3
		c2-0.3,3.1-1.3,3.1-3.3c0.1-4.5,0.1-9,0.2-13.5c0-4.7,0.1-9.4-0.1-14.1c-0.1-3.8-0.8-4.3-4.6-4.7c-0.9-0.1-1.8-0.1-1.3-1.5H187
		c0.1,0.1,0.2,0.3,0.4,0.4c-0.4,0.3-0.7,0.9-1.2,1c-5.1,0.9-5.2,1-5.2,6.2c0,8.3,0,16.7,0,25c0,3.2,0.8,4.2,3.9,4.6
		c6.9,1,12.4-1.6,16.6-6.9C202.4,82.3,203.4,81.7,205.2,82.3 M174,90.6c1.3,0.1,2.1-0.8,2.5-2.2c0.2-0.9,0.2-1.9,0.2-2.8
		c0-6.2,0-12.4,0-18.6c0-3.2-0.1-6.5-0.2-9.7c-0.1-1.8-1-2.8-2.5-2.6c0.3,1.5,0.8,2.9,0.9,4.4c0.1,9.1,0.1,18.3,0,27.4
		C174.9,87.8,174.4,89.2,174,90.6 M194.8,90.4c4,0.5,5.3-0.5,5.5-4C198.6,87.7,196.8,89,194.8,90.4"/>
	<path d="M213.5,53.1h18.7c0.1,0.1,0.3,0.2,0.4,0.3c-0.4,0.4-0.7,1-1.1,1c-4.9,0-5.3,1.9-5.3,6.4c0,8,0,16,0,24c0,4.3,1,5.3,5.4,5.6
		c6.3,0.4,11.3-2.2,15.2-7.1c1-1.2,2-1.8,3.7-1.3c-1.1,3.1-2.2,6.2-3.4,9.2c-0.1,0.3-0.8,0.6-1.2,0.6c-10.8,0-21.5,0-32.7-0.4
		c0.4-0.4,0.7-0.9,1.1-1c0.6-0.2,1.2-0.2,1.8-0.3c2.2-0.4,3-1.2,3.1-3.5c0.1-1.6,0.1-3.1,0.1-4.7c0-7.3,0-14.6,0-22
		c0-4.3-0.6-4.9-4.8-5.5c-0.5-0.1-0.9-0.6-1.4-1C213.3,53.5,213.4,53.3,213.5,53.1 M219.4,54.7c0.3,1.5,0.8,3,0.8,4.4
		c0.1,9,0.1,18,0,27c0,1.5-0.6,3-0.9,4.4c1.8,0,2.7-1,2.7-3.9c0-9.1,0-18.2,0-27.4c0-0.7-0.1-1.4-0.1-2.1
		C221.7,55.6,220.8,54.6,219.4,54.7 M245.6,86.5c-1.9,1.3-3.6,2.6-5.6,4C244.5,90.7,244.7,90.6,245.6,86.5"/>
	<path d="M119.9,142.3c0.3,0,0.7-0.2,1-0.5l0.1,0.2c-0.4,0.4-0.9,0.7-1.4,0.7c-0.9,0-1.4-0.9-1.2-2c0.2-1.2,1.1-2,1.9-2
		c0.6,0,0.9,0.4,0.8,0.9c-0.1,0.6-0.7,1.3-2.1,1.6C119,141.9,119.3,142.3,119.9,142.3 M120.6,139.6c0-0.3-0.1-0.5-0.3-0.5
		c-0.5,0-1,0.6-1.2,1.6c0,0.1,0,0.1,0,0.2C120,140.7,120.5,140.1,120.6,139.6"/>
	<path d="M123.5,142.7c-0.7,0-1-0.5-0.9-0.7c0-0.2,0.2-0.3,0.3-0.3c0.4,0,0,0.6,0.8,0.6c0.3,0,0.6-0.3,0.6-0.5
		c0.1-0.3-0.2-0.6-0.3-0.8l-0.4-0.4c-0.3-0.2-0.4-0.6-0.4-1c0.1-0.5,0.5-1,1.2-1c0.6,0,0.8,0.4,0.7,0.6c0,0.1-0.1,0.2-0.2,0.2
		c-0.4,0-0.1-0.6-0.6-0.6c-0.2,0-0.5,0.2-0.6,0.5c-0.1,0.3,0.1,0.5,0.3,0.7l0.4,0.4c0.3,0.3,0.4,0.7,0.4,1
		C124.7,142.3,124.1,142.7,123.5,142.7"/>
	<path d="M127.5,141.5c-0.1,0.5,0,0.8,0.2,0.8c0.1,0,0.4-0.1,0.7-0.5l0,0.3c-0.3,0.4-0.7,0.6-1,0.6c-0.5,0-0.7-0.4-0.6-1.2l0.4-2.2
		h-0.7l0.1-0.4h0.7l0.3-1.8h0.6l-0.3,1.8h0.9l-0.1,0.4h-0.9L127.5,141.5z"/>
	<path d="M130.8,142.6c-0.3,0-0.5-0.2-0.4-0.5c0.1-0.3,0.3-0.5,0.6-0.5s0.5,0.2,0.4,0.5C131.4,142.4,131.1,142.6,130.8,142.6"/>
	<path d="M134.3,141.5l2.7-2.3c1.1-0.9,1.4-1.4,1.4-2.1c0-0.8-0.5-1.2-1.2-1.2c-0.7,0-1.2,0.4-1.8,1.2l-1-0.8c0.7-1,1.5-1.6,2.8-1.6
		c1.5,0,2.5,0.9,2.5,2.3v0c0,1.2-0.6,1.9-2,3l-1.6,1.3h3.7v1.2h-5.6V141.5z"/>
	<path d="M142.2,138.7L142.2,138.7c0-2.2,1.3-4,3.4-4c2,0,3.3,1.8,3.3,4v0c0,2.2-1.3,4-3.4,4S142.2,140.9,142.2,138.7 M147.5,138.7
		L147.5,138.7c0-1.5-0.8-2.8-2-2.8c-1.2,0-1.9,1.2-1.9,2.7v0c0,1.5,0.8,2.8,2,2.8C146.8,141.5,147.5,140.2,147.5,138.7"/>
	<path d="M151.3,138.7L151.3,138.7c0-2.2,1.3-4,3.4-4c2,0,3.3,1.8,3.3,4v0c0,2.2-1.3,4-3.4,4S151.3,140.9,151.3,138.7 M156.6,138.7
		L156.6,138.7c0-1.5-0.8-2.8-2-2.8s-1.9,1.2-1.9,2.7v0c0,1.5,0.8,2.8,2,2.8S156.6,140.2,156.6,138.7"/>
	<polygon points="164.1,136 160.2,136 160.2,134.8 165.6,134.8 165.6,135.9 162.1,142.5 160.6,142.5 	"/>
	<path d="M77.7,114.2v5.7c0,0.6,0,1.1,0.1,1.5c0.1,0.3,0.3,0.6,0.5,0.8c0.2,0.2,0.6,0.3,1,0.3c0.4,0,1.1,0.1,1.8,0.1
		c0.9,0,1.8-0.1,2.5-0.4c0.7-0.3,1.5-0.7,2.1-1.3c0.7-0.6,1.4-1.3,2.2-2.2h1l-1.6,4.7H71.7v-0.7c0.8,0,1.3-0.1,1.7-0.2
		c0.4-0.1,0.7-0.3,0.8-0.6s0.2-0.7,0.2-1.2v-12.7c0-0.6-0.1-1-0.2-1.3c-0.2-0.3-0.4-0.5-0.8-0.6c-0.4-0.1-1-0.2-1.8-0.2v-0.7h15.2
		l1.6,4.1h-0.9c-0.5-0.6-1.1-1.2-1.8-1.7c-0.7-0.5-1.5-0.9-2.4-1.2c-0.9-0.3-1.8-0.5-2.8-0.5c-0.8,0-1.4,0.1-1.8,0.3
		s-0.7,0.4-0.8,0.7c-0.1,0.3-0.2,0.7-0.2,1.2v5.6h2.6c2.3,0,3.4-1,3.4-3.1h0.9v6.8h-0.8c-0.1-1-0.4-1.8-0.9-2.3
		c-0.5-0.5-1.2-0.7-2.2-0.7H77.7z M74.9,107.9v12.4c0,0.6-0.1,1.1-0.2,1.4c-0.1,0.3-0.4,0.5-0.7,0.7c0.7,0,1.2-0.2,1.4-0.6
		s0.3-1,0.3-1.8v-12.4c0-0.7-0.1-1.2-0.4-1.4c-0.2-0.2-0.7-0.4-1.3-0.4c0.3,0.2,0.5,0.4,0.7,0.7C74.9,106.9,74.9,107.3,74.9,107.9
		 M83.6,115v-2.5c-0.3,0.6-0.9,1-1.8,1.3c0.5,0.1,0.8,0.3,1.1,0.5C83.1,114.4,83.4,114.7,83.6,115 M85.6,105.8h-2.3
		c0.6,0.2,1.2,0.5,1.7,0.8s1,0.7,1.6,1.1L85.6,105.8z M86.2,122.5l0.9-2.2c-0.5,0.5-1,1-1.4,1.2c-0.4,0.3-1,0.6-1.7,1H86.2z"/>
	<path d="M97.7,116.7h0.8c0.5,1.4,1,2.5,1.7,3.4c0.7,0.9,1.4,1.6,2.2,2c0.8,0.4,1.6,0.7,2.5,0.7c1.1,0,2-0.3,2.8-1
		c0.8-0.7,1.1-1.5,1.1-2.6c0-1-0.3-1.7-0.8-2.3c-0.5-0.5-1.1-0.9-1.8-1.1c-0.7-0.2-1.6-0.4-2.8-0.6c-1.1-0.2-2-0.4-2.4-0.5
		c-0.7-0.3-1.4-0.6-1.9-1.1c-0.5-0.5-0.9-1-1.2-1.6c-0.3-0.6-0.4-1.3-0.4-2c0-0.7,0.1-1.3,0.4-2c0.2-0.6,0.6-1.2,1-1.7
		s1-0.9,1.6-1.2c0.6-0.3,1.3-0.4,2.1-0.4c0.6,0,1.2,0.1,2.1,0.2c0.8,0.2,1.4,0.2,1.8,0.2c0.5,0,0.9-0.1,1.3-0.3h1l0.6,5.3h-0.9
		c-0.8-1.6-1.7-2.8-2.6-3.6c-0.9-0.8-2-1.2-3.2-1.2c-0.6,0-1.2,0.1-1.7,0.4c-0.5,0.3-1,0.7-1.3,1.2c-0.3,0.5-0.5,1.1-0.5,1.7
		c0,0.9,0.3,1.5,0.9,2c0.6,0.5,1.4,0.8,2.6,1c1.1,0.2,2.2,0.4,3.1,0.6c0.9,0.2,1.6,0.4,2.2,0.6c1,0.5,1.7,1.1,2.3,2
		c0.5,0.8,0.8,1.8,0.8,2.9c0,1-0.2,2-0.7,2.9c-0.5,0.9-1.2,1.6-2.1,2.1c-0.9,0.5-1.9,0.8-3,0.8c-0.6,0-1.1,0-1.4-0.1
		c-0.3-0.1-0.9-0.3-1.6-0.6c-0.8-0.3-1.4-0.4-1.8-0.4c-0.7,0-1.2,0.3-1.6,0.8h-0.7V116.7z M98.1,108.4c-0.1,0.7-0.2,1.2-0.2,1.6
		c0,0.5,0.1,0.9,0.2,1.4c0.2,0.5,0.4,0.9,0.7,1.3c0.3,0.4,0.6,0.7,1,1c0.5,0.3,1.1,0.6,1.7,0.7c0.6,0.1,1.5,0.3,2.7,0.5
		c1.2,0.2,2,0.4,2.4,0.6c0.8,0.3,1.5,0.8,1.9,1.4c0.5,0.6,0.7,1.3,0.7,2.2c0,0.6-0.2,1.3-0.5,2c0.7-0.7,1.1-1.6,1.1-2.6
		c0-1-0.3-1.8-0.8-2.4c-0.5-0.6-1.2-1-1.9-1.3c-0.8-0.3-1.8-0.5-3.1-0.8c-1.3-0.2-2-0.4-2-0.4c-1.2-0.3-2.1-0.9-2.8-1.6
		s-0.9-1.7-0.9-2.7c0-0.2,0-0.3,0-0.5C98.1,108.7,98.1,108.5,98.1,108.4 M98.1,119v3.4c0.2-0.3,0.5-0.5,0.7-0.6
		c0.2-0.1,0.5-0.1,1-0.1c-0.3-0.3-0.5-0.6-0.6-0.7c-0.1-0.2-0.3-0.4-0.5-0.7C98.5,120,98.3,119.6,98.1,119 M107.8,108.3l-0.4-2.5
		c-0.3,0.1-0.6,0.1-0.8,0.1c-0.3,0-0.6,0-1-0.1c0.3,0.2,0.6,0.5,0.9,0.7s0.5,0.6,0.8,1C107.5,108,107.7,108.2,107.8,108.3"/>
	<path d="M118.6,105.1h16.3l0.9,4.2h-0.9c-0.7-1.1-1.3-1.9-2.1-2.4c-0.7-0.5-1.4-0.8-2-0.9c-0.6-0.1-1.5-0.2-2.5-0.2v14.6
		c0,0.6,0.1,1,0.3,1.3c0.2,0.3,0.5,0.5,0.9,0.6c0.4,0.1,1,0.2,1.7,0.2v0.7h-9v-0.7c0.7,0,1.3-0.1,1.7-0.2c0.4-0.1,0.7-0.3,0.9-0.6
		c0.2-0.3,0.3-0.8,0.3-1.5v-14.5c-0.9,0-1.7,0.1-2.4,0.3c-0.7,0.2-1.3,0.4-1.7,0.7c-0.5,0.3-0.8,0.6-1.1,1c-0.3,0.3-0.8,0.9-1.3,1.6
		h-0.8L118.6,105.1z M121,105.8h-2.1l-0.5,2.2c0.4-0.6,0.8-1,1.1-1.3S120.4,106.1,121,105.8 M126.4,119.9v-12.6
		c0-0.5-0.1-0.9-0.2-1.1c-0.1-0.2-0.3-0.4-0.6-0.4v14.6c0,0.5-0.1,1-0.2,1.3c-0.1,0.3-0.4,0.6-0.7,0.8h0.3c0.6,0,1-0.2,1.2-0.6
		C126.3,121.5,126.4,120.8,126.4,119.9 M134.4,107.8l-0.6-2.1h-2.4c0.7,0.2,1.2,0.5,1.6,0.8C133.5,106.9,133.9,107.3,134.4,107.8"/>
	<path d="M154.5,120l-1.4-3.7h-6.1l-0.8,2.2c-0.2,0.6-0.3,1.1-0.3,1.7c0,0.6,0.2,1.1,0.5,1.5c0.4,0.4,0.9,0.7,1.5,0.7v0.7h-6v-0.7
		c1.3-0.2,2.4-1.3,3.2-3.4l4.4-11.4c-0.2-0.4-0.5-0.7-0.7-0.8s-0.6-0.2-1.1-0.3v-0.6l3.1-1.1h1.2l5.9,15.2c0.3,0.9,0.7,1.4,1,1.7
		c0.3,0.3,0.9,0.5,1.6,0.7v0.7h-7.6v-0.7c0.7-0.1,1.2-0.2,1.5-0.3c0.3-0.1,0.5-0.4,0.5-0.8C154.8,121,154.7,120.6,154.5,120
		 M143.3,122.5h2.5c-0.5-0.4-0.8-0.9-0.8-1.6c0-0.2,0-0.3,0-0.4c-0.2,0.4-0.5,0.8-0.7,1.1C144,121.9,143.7,122.2,143.3,122.5
		 M147.3,115.5h5.4l-2.7-6.9L147.3,115.5z M155.6,119.5l-4.6-11.6c-0.2-0.6-0.5-1-0.7-1.2s-0.6-0.4-1-0.4c-0.2,0-0.4,0-0.6,0.1
		c0.4,0.2,0.7,0.4,0.9,0.7s0.4,0.7,0.6,1.2l4.5,11.6c0.3,0.7,0.4,1.2,0.4,1.6c0,0.2,0,0.4-0.1,0.5s-0.3,0.3-0.6,0.5h0.3
		c0.4,0,0.7-0.1,0.9-0.3c0.2-0.2,0.3-0.5,0.3-0.8C156.1,121,155.9,120.4,155.6,119.5"/>
	<path d="M167.5,105.1h16.3l0.9,4.2h-0.9c-0.7-1.1-1.3-1.9-2.1-2.4c-0.7-0.5-1.4-0.8-2-0.9c-0.6-0.1-1.5-0.2-2.5-0.2v14.6
		c0,0.6,0.1,1,0.3,1.3c0.2,0.3,0.5,0.5,0.9,0.6c0.4,0.1,1,0.2,1.7,0.2v0.7h-9v-0.7c0.7,0,1.3-0.1,1.7-0.2s0.7-0.3,0.9-0.6
		s0.3-0.8,0.3-1.5v-14.5c-0.9,0-1.7,0.1-2.4,0.3c-0.7,0.2-1.3,0.4-1.7,0.7c-0.5,0.3-0.8,0.6-1.2,1c-0.3,0.3-0.8,0.9-1.3,1.6h-0.8
		L167.5,105.1z M169.9,105.8h-2.1l-0.5,2.2c0.4-0.6,0.8-1,1.1-1.3C168.8,106.4,169.3,106.1,169.9,105.8 M175.3,119.9v-12.6
		c0-0.5-0.1-0.9-0.2-1.1c-0.1-0.2-0.3-0.4-0.6-0.4v14.6c0,0.5-0.1,1-0.2,1.3c-0.1,0.3-0.4,0.6-0.7,0.8h0.3c0.6,0,1-0.2,1.2-0.6
		C175.2,121.5,175.3,120.8,175.3,119.9 M183.3,107.8l-0.6-2.1h-2.4c0.7,0.2,1.2,0.5,1.6,0.8C182.4,106.9,182.8,107.3,183.3,107.8"/>
	<path d="M197.2,114.2v5.7c0,0.6,0,1.1,0.1,1.5c0.1,0.3,0.3,0.6,0.5,0.8c0.2,0.2,0.6,0.3,1,0.3c0.4,0,1.1,0.1,1.8,0.1
		c0.9,0,1.8-0.1,2.5-0.4c0.8-0.3,1.5-0.7,2.1-1.3c0.7-0.6,1.4-1.3,2.2-2.2h1l-1.6,4.7h-15.8v-0.7c0.8,0,1.3-0.1,1.7-0.2
		c0.4-0.1,0.7-0.3,0.8-0.6s0.3-0.7,0.3-1.2v-12.7c0-0.6-0.1-1-0.2-1.3c-0.2-0.3-0.4-0.5-0.8-0.6c-0.4-0.1-1-0.2-1.8-0.2v-0.7h15.2
		l1.6,4.1h-0.9c-0.5-0.6-1.1-1.2-1.8-1.7c-0.7-0.5-1.5-0.9-2.4-1.2s-1.8-0.5-2.8-0.5c-0.8,0-1.4,0.1-1.8,0.3
		c-0.4,0.2-0.7,0.4-0.8,0.7c-0.1,0.3-0.2,0.7-0.2,1.2v5.6h2.6c2.3,0,3.4-1,3.4-3.1h0.9v6.8h-0.8c-0.1-1-0.4-1.8-0.9-2.3
		c-0.5-0.5-1.2-0.7-2.2-0.7H197.2z M194.4,107.9v12.4c0,0.6-0.1,1.1-0.2,1.4c-0.1,0.3-0.4,0.5-0.7,0.7c0.7,0,1.2-0.2,1.4-0.6
		s0.3-1,0.3-1.8v-12.4c0-0.7-0.1-1.2-0.4-1.4c-0.2-0.2-0.7-0.4-1.3-0.4c0.3,0.2,0.5,0.4,0.7,0.7S194.4,107.3,194.4,107.9 M203,115
		v-2.5c-0.3,0.6-0.9,1-1.8,1.3c0.5,0.1,0.8,0.3,1.1,0.5C202.6,114.4,202.8,114.7,203,115 M205.1,105.8h-2.3c0.6,0.2,1.2,0.5,1.7,0.8
		s1,0.7,1.6,1.1L205.1,105.8z M205.7,122.5l0.9-2.2c-0.5,0.5-1,1-1.4,1.2c-0.4,0.3-1,0.6-1.7,1H205.7z"/>
	<path fill="#231F20" d="M145,30.5c0.6,1.3-0.7,2.6-2.1,2c-0.3-0.1-0.5-0.4-0.7-0.6c-0.6-1.3,0.7-2.6,2.1-2
		C144.6,30,144.8,30.3,145,30.5"/>
	<path d="M79.3,34.4l0.8-1c0.7,0.6,1.5,1,2.4,1c0.8,0,1.4-0.4,1.4-1v0c0-0.5-0.3-0.8-1.7-1.2c-1.6-0.4-2.6-0.9-2.6-2.3v0
		c0-1.3,1.1-2.2,2.6-2.2c1.1,0,2,0.3,2.8,1l-0.7,1c-0.7-0.5-1.4-0.8-2.1-0.8c-0.8,0-1.3,0.4-1.3,0.9v0c0,0.6,0.4,0.9,1.8,1.2
		c1.6,0.4,2.5,1,2.5,2.3v0c0,1.4-1.1,2.3-2.8,2.3C81.3,35.7,80.2,35.2,79.3,34.4"/>
	<path d="M87.6,31.7L87.6,31.7c0-2.2,1.7-4,4-4c2.4,0,4,1.8,4,4v0c0,2.2-1.7,4-4,4C89.2,35.7,87.6,33.9,87.6,31.7 M94.2,31.7
		L94.2,31.7c0-1.5-1.1-2.8-2.6-2.8c-1.5,0-2.6,1.2-2.6,2.7v0c0,1.5,1.1,2.7,2.6,2.7C93.2,34.4,94.2,33.2,94.2,31.7"/>
	<polygon points="98.4,27.8 99.6,27.8 103.8,33.2 103.8,27.8 105.1,27.8 105.1,35.5 104,35.5 99.7,30.1 99.7,35.5 98.4,35.5 	"/>
	<path d="M107.8,31.7L107.8,31.7c0-2.2,1.7-4,4-4c2.4,0,4,1.8,4,4v0c0,2.2-1.7,4-4,4C109.5,35.7,107.8,33.9,107.8,31.7 M114.5,31.7
		L114.5,31.7c0-1.5-1.1-2.8-2.6-2.8c-1.5,0-2.6,1.2-2.6,2.7v0c0,1.5,1.1,2.7,2.6,2.7C113.4,34.4,114.5,33.2,114.5,31.7"/>
	<polygon points="118.6,27.8 120.1,27.8 122.4,31.5 124.8,27.8 126.2,27.8 126.2,35.5 124.8,35.5 124.8,30 122.4,33.7 122.4,33.7 
		120,30 120,35.5 118.6,35.5 	"/>
	<path d="M132,27.8h1.3l3.4,7.8h-1.4l-0.8-1.9h-3.6l-0.8,1.9h-1.4L132,27.8z M133.9,32.5l-1.3-3.1l-1.3,3.1H133.9z"/>
	<path d="M151.2,31.7L151.2,31.7c0-2.2,1.6-4,4-4c1.4,0,2.3,0.5,3,1.2l-0.9,1c-0.6-0.6-1.3-1-2.2-1c-1.5,0-2.5,1.2-2.5,2.7v0
		c0,1.5,1.1,2.7,2.5,2.7c0.9,0,1.6-0.4,2.2-1l0.9,0.9c-0.8,0.8-1.7,1.4-3.1,1.4C152.9,35.7,151.2,33.9,151.2,31.7"/>
	<path d="M160.2,31.7L160.2,31.7c0-2.2,1.7-4,4-4c2.4,0,4,1.8,4,4v0c0,2.2-1.7,4-4,4S160.2,33.9,160.2,31.7 M166.8,31.7L166.8,31.7
		c0-1.5-1.1-2.8-2.6-2.8s-2.6,1.2-2.6,2.7v0c0,1.5,1.1,2.7,2.6,2.7S166.8,33.2,166.8,31.7"/>
	<path d="M170.9,32.3v-4.4h1.4v4.4c0,1.4,0.7,2.2,1.9,2.2c1.2,0,1.9-0.7,1.9-2.1v-4.4h1.4v4.4c0,2.3-1.3,3.5-3.3,3.5
		C172.1,35.7,170.9,34.5,170.9,32.3"/>
	<polygon points="180.4,27.8 181.7,27.8 185.8,33.2 185.8,27.8 187.1,27.8 187.1,35.5 186,35.5 181.7,30.1 181.7,35.5 180.4,35.5 	
		"/>
	<polygon points="192.1,29.1 189.7,29.1 189.7,27.8 195.9,27.8 195.9,29.1 193.5,29.1 193.5,35.5 192.1,35.5 	"/>
	<polygon points="200.7,32.5 197.6,27.8 199.2,27.8 201.4,31.2 203.6,27.8 205.1,27.8 202.1,32.5 202.1,35.5 200.7,35.5 	"/>
	<path d="M280.7,160.4H4.6V5.6h276.1V160.4z M10.4,154.6h264.4V11.5H10.4V154.6z"/>
	<path d="M285.2,166H0V0h285.2V166z M1.4,164.6h282.4V1.4H1.4V164.6z"/>
</g>
</svg>
