<?xml version="1.0" encoding="utf-8"?>
<!-- Generator: Adobe Illustrator 16.0.0, SVG Export Plug-In . SVG Version: 6.00 Build 0)  -->
<!DOCTYPE svg PUBLIC "-//W3C//DTD SVG 1.1//EN" "http://www.w3.org/Graphics/SVG/1.1/DTD/svg11.dtd">
<svg version="1.1" id="Layer_1" xmlns="http://www.w3.org/2000/svg" xmlns:xlink="http://www.w3.org/1999/xlink" x="0px" y="0px"
	 width="221px" height="142.5px" viewBox="0 0 221 142.5" enable-background="new 0 0 221 142.5" xml:space="preserve">
<rect x="0" y="-0.1" fill="#FFFFFF" width="221" height="143.1"/>
<g>
	<path d="M57.9,48.5c0.3,2.8,0.6,5.5,0.9,8.2c-0.9,0.4-1.4,0.1-2-0.8c-1.1-1.6-2.2-3.2-3.6-4.6c-1.9-1.9-4.2-2.5-6.9-1.8
		c-1.8,0.5-3,1.7-3.6,3.5c-0.7,2.3,0.2,4.4,2.5,5.2c2.5,0.8,5,1.3,7.6,1.8c3,0.6,5.7,1.7,7.3,4.6c3.1,5.8-1.2,13.2-7.8,13.2
		c-1.8,0-3.6-0.6-5.3-1c-1.8-0.5-3.6-1.2-5.2,0.5c-0.2,0.2-0.7,0.1-1.2,0.2V67.2c0.9-0.4,1.4-0.1,1.7,0.8c1,2.6,2.3,4.9,4.5,6.7
		c2.1,1.7,4.4,2.4,7.1,1.6c2.5-0.7,4.1-2.8,4.2-5.2c0-2.6-1.2-4.5-3.8-5.3c-2.2-0.7-4.4-1-6.7-1.5c-3.4-0.7-6.1-2.2-7-5.7
		c-1.6-6,3.2-11.2,9.4-10.3c0.7,0.1,1.4,0.4,2.2,0.4c1.4,0,2.7-0.1,4.1-0.1C56.7,48.6,57.3,48.5,57.9,48.5 M41.1,55.1
		c-0.6,4.5,1.8,7.7,6,8.6c2.5,0.5,5,0.8,7.4,1.5c3.2,1,4.6,3.5,4.1,6.8c0,0.2,0,0.4,0,0.9c0.3-0.5,0.4-0.6,0.5-0.8
		c1.5-3.2,0-6.7-3.6-7.9c-2.3-0.8-4.7-1.2-7.1-1.7C43.6,61.6,42,60,41.1,55.1 M43.6,74.9c-0.7-1.1-1.4-2.2-2.2-3.3v4.2
		C42.1,75.4,42.8,75.2,43.6,74.9 M56.2,53.4c0.1,0,0.1-0.1,0.2-0.1c-0.2-1-0.4-2.1-0.6-3.1h-2.3C54.5,51.4,55.4,52.4,56.2,53.4"/>
	<path d="M121.6,71c-0.7,2.1-1.5,4.2-2.2,6.3H97.3c-0.1-0.1-0.1-0.2-0.2-0.3c0.3-0.2,0.5-0.5,0.8-0.6c3.3-0.7,3.3-0.7,3.3-4.1
		c0-5.3,0-10.7,0-16c0-2.5-0.4-2.9-2.8-3.2c-1.1-0.1-1.1-0.1-1-1.1h1.8c6.1,0,12.1,0,18.2,0c0.9,0,1.4,0.3,1.6,1.2
		c0.5,1.5,1.1,3,1.7,4.4c-0.1,0.1-0.1,0.2-0.2,0.3c-0.5-0.3-1.2-0.4-1.6-0.8c-3-2.9-6.5-4.5-10.8-4c-1.7,0.2-2.3,0.9-2.3,2.6
		c0,2.6,0,5.3,0,8.3c2.1-0.2,4.1-0.2,6-0.6c1.8-0.4,2.3-2,2.5-3.8h1.1v9.3c-0.7,0.2-1,0.1-1.2-0.7c-0.5-2.5-1.6-3.3-4.2-3.4
		c-1.3,0-2.7,0-4.2,0c0,1,0,2,0,3c0,2,0,4.1,0,6.1c0,1.5,0.6,2.1,2.1,2.3c4.8,0.8,8.5-0.9,11.5-4.5C120.2,70.7,120.3,70.7,121.6,71
		 M101.2,76.2c1.2-0.3,1.6-0.8,1.6-2.4c0-2.6,0-5.3,0-7.9c0-3.5,0-7,0-10.5c0-1.5-0.4-1.9-1.6-2c0.1,0.9,0.4,1.9,0.4,2.9
		c0,5.6,0,11.2,0,16.9C101.7,74.1,101.4,75.1,101.2,76.2 M115,76.2c2.7,0.4,3.3-0.1,3.4-2.3C117.3,74.6,116.2,75.4,115,76.2 M114,53
		c1.3,0.8,2.5,1.4,3.7,2.1C117,52.8,117,52.8,114,53 M113.8,65.5v-2.6c-0.7,0.5-1.3,0.9-2,1.3C112.4,64.6,113.1,65,113.8,65.5"/>
	<path d="M81.2,77.3H68.4c-0.1-0.1-0.2-0.2-0.2-0.3c0.3-0.2,0.5-0.6,0.8-0.7c3.4-0.6,3.4-0.7,3.4-4.1c0-5.4,0-10.8,0-16.1
		c0-2.5-0.5-2.9-3-3.2c-1-0.1-1-0.1-0.9-1.2c5.5,0.2,11,0.1,16.4,0.5c3.7,0.3,6.4,3.4,6.3,6.7c0,2.4-1.2,4.2-3.3,5.3
		c-2.1,1.2-4.5,1.4-6.9,1.5c-1.3,0-2.7,0-4.1,0c0,3-0.1,5.8,0,8.7c0,0.9,0.8,1.5,1.8,1.6c0.6,0.1,1.3,0.1,1.9,0.2
		c0.3,0.1,0.5,0.4,0.8,0.6C81.4,77.1,81.3,77.2,81.2,77.3 M76.9,65c1.8-0.1,3.5-0.2,5.1-0.4c1.6-0.2,3-1,3.6-2.6
		c0.9-2.4,1-4.8-0.7-6.9c-1.6-2.1-3.9-2.2-6.3-1.9c-1,0.1-1.7,0.8-1.7,1.8C76.9,58.1,76.9,61.4,76.9,65 M72.3,76.3
		c1.3-0.2,1.7-0.6,1.7-2.1c0-6.2,0-12.4,0-18.6c0-0.4,0-0.9-0.2-1.3c-0.2-0.8-0.8-1.2-1.4-1.1c0.2,1.2,0.4,2.3,0.4,3.4
		c0,5.7,0,11.4,0,17.1C72.8,74.5,72.5,75.4,72.3,76.3 M84.3,53.4c3.2,2.7,3.5,8.2,0.3,10.9c2-0.5,3.2-2,3.3-4.5
		C88.2,56.2,87.2,54.4,84.3,53.4"/>
	<path d="M151.1,71c-0.8,2.1-1.6,4.2-2.3,6.3h-21.7c-0.1-0.1-0.2-0.2-0.3-0.2c0.2-0.2,0.4-0.6,0.7-0.7c0.4-0.1,0.8-0.1,1.2-0.2
		c1.3-0.2,2-0.8,2-2.2c0-2.9,0.1-5.9,0.1-8.8c0-3.1,0.1-6.1,0-9.2c-0.1-2.5-0.5-2.8-3-3.1c-0.6-0.1-1.2,0-0.9-1h12.3
		c0.1,0.1,0.2,0.2,0.2,0.3c-0.3,0.2-0.5,0.6-0.8,0.7c-3.3,0.6-3.4,0.7-3.4,4c0,5.4,0,10.8,0,16.3c0,2.1,0.5,2.7,2.5,3
		c4.5,0.7,8-1,10.8-4.5C149.3,71,149.9,70.6,151.1,71 M130.8,76.4c0.8,0.1,1.4-0.5,1.6-1.4c0.1-0.6,0.2-1.2,0.2-1.8
		c0-4,0-8.1,0-12.1c0-2.1-0.1-4.2-0.1-6.3c0-1.2-0.6-1.8-1.6-1.7c0.2,1,0.5,1.9,0.6,2.9c0.1,5.9,0,11.9,0,17.8
		C131.4,74.6,131.1,75.4,130.8,76.4 M144.4,76.2c2.6,0.3,3.4-0.3,3.6-2.6C146.8,74.5,145.6,75.3,144.4,76.2"/>
	<path d="M156.5,52h12.2c0.1,0.1,0.2,0.2,0.3,0.2c-0.2,0.2-0.5,0.7-0.7,0.7c-3.2,0-3.4,1.2-3.4,4.2c0,5.2,0,10.4,0,15.6
		c0,2.8,0.6,3.5,3.5,3.6c4.1,0.3,7.3-1.4,9.9-4.6c0.6-0.8,1.3-1.2,2.4-0.8c-0.7,2-1.5,4-2.2,6c-0.1,0.2-0.5,0.4-0.8,0.4
		c-7,0-14,0-21.3-0.3c0.2-0.2,0.4-0.6,0.7-0.7c0.4-0.1,0.8-0.1,1.2-0.2c1.4-0.3,1.9-0.8,2-2.3c0.1-1,0-2,0-3.1c0-4.8,0-9.5,0-14.3
		c0-2.8-0.4-3.2-3.1-3.6c-0.3,0-0.6-0.4-0.9-0.6C156.4,52.2,156.4,52.1,156.5,52 M160.3,53c0.2,1,0.5,1.9,0.5,2.9
		c0,5.9,0.1,11.7,0,17.6c0,1-0.4,1.9-0.6,2.9c1.2,0,1.7-0.7,1.7-2.5c0-5.9,0-11.9,0-17.8c0-0.4,0-0.9-0.1-1.3
		C161.8,53.6,161.3,52.9,160.3,53 M177.4,73.7c-1.2,0.9-2.4,1.7-3.7,2.6C176.7,76.5,176.8,76.3,177.4,73.7"/>
	<path d="M95.6,110c0.2,0,0.5-0.1,0.7-0.3l0.1,0.1c-0.2,0.3-0.6,0.5-0.9,0.5c-0.6,0-0.9-0.6-0.8-1.3c0.1-0.8,0.7-1.3,1.2-1.3
		c0.4,0,0.6,0.3,0.5,0.6c-0.1,0.4-0.5,0.8-1.4,1C95,109.7,95.2,110,95.6,110 M96.1,108.3c0-0.2,0-0.3-0.2-0.3c-0.3,0-0.6,0.4-0.8,1
		c0,0,0,0.1,0,0.1C95.7,108.9,96,108.6,96.1,108.3"/>
	<path d="M98,110.3c-0.4,0-0.7-0.3-0.6-0.5c0-0.1,0.1-0.2,0.2-0.2c0.3,0,0,0.4,0.5,0.4c0.2,0,0.4-0.2,0.4-0.3c0-0.2-0.1-0.4-0.2-0.5
		L98,109c-0.2-0.2-0.3-0.4-0.2-0.7c0.1-0.3,0.3-0.7,0.8-0.7c0.4,0,0.5,0.3,0.5,0.4c0,0.1-0.1,0.1-0.2,0.1c-0.3,0,0-0.4-0.4-0.4
		c-0.2,0-0.3,0.1-0.4,0.3c0,0.2,0,0.3,0.2,0.5l0.3,0.2c0.2,0.2,0.3,0.4,0.2,0.7C98.7,110,98.3,110.3,98,110.3"/>
	<path d="M100.6,109.5c-0.1,0.3,0,0.5,0.2,0.5c0.1,0,0.2-0.1,0.5-0.3l0,0.2c-0.2,0.3-0.5,0.4-0.6,0.4c-0.3,0-0.5-0.2-0.4-0.8
		l0.2-1.4H100l0.1-0.3h0.5l0.2-1.1h0.4l-0.2,1.1h0.6l0,0.3h-0.6L100.6,109.5z"/>
	<path d="M102.7,110.2c-0.2,0-0.3-0.2-0.3-0.3c0-0.2,0.2-0.3,0.4-0.3s0.3,0.2,0.3,0.3C103.1,110.1,102.9,110.2,102.7,110.2"/>
	<path d="M105,109.5l1.7-1.5c0.7-0.6,0.9-0.9,0.9-1.4c0-0.5-0.4-0.8-0.8-0.8s-0.8,0.3-1.2,0.8l-0.6-0.5c0.5-0.7,1-1,1.8-1
		c1,0,1.7,0.6,1.7,1.5v0c0,0.8-0.4,1.2-1.3,1.9l-1,0.9h2.4v0.8H105V109.5z"/>
	<path d="M110.2,107.7L110.2,107.7c0-1.4,0.9-2.6,2.2-2.6c1.3,0,2.2,1.1,2.2,2.6v0c0,1.4-0.9,2.6-2.2,2.6
		C111,110.2,110.2,109.1,110.2,107.7 M113.6,107.7L113.6,107.7c0-1-0.5-1.8-1.3-1.8c-0.8,0-1.3,0.8-1.3,1.8v0c0,1,0.5,1.8,1.3,1.8
		S113.6,108.6,113.6,107.7"/>
	<path d="M116,107.7L116,107.7c0-1.4,0.9-2.6,2.2-2.6c1.3,0,2.2,1.1,2.2,2.6v0c0,1.4-0.9,2.6-2.2,2.6
		C116.9,110.2,116,109.1,116,107.7 M119.5,107.7L119.5,107.7c0-1-0.5-1.8-1.3-1.8c-0.8,0-1.3,0.8-1.3,1.8v0c0,1,0.5,1.8,1.3,1.8
		C119,109.4,119.5,108.6,119.5,107.7"/>
	<polygon points="124.3,105.9 121.8,105.9 121.8,105.1 125.4,105.1 125.4,105.8 123.1,110.2 122.1,110.2 	"/>
	<path d="M68.2,91.7v3.7c0,0.4,0,0.7,0.1,0.9c0.1,0.2,0.2,0.4,0.3,0.5c0.2,0.1,0.4,0.2,0.7,0.2c0.3,0,0.7,0,1.2,0
		c0.6,0,1.2-0.1,1.7-0.3c0.5-0.2,0.9-0.5,1.4-0.8c0.4-0.4,0.9-0.9,1.4-1.5h0.7l-1,3H64.2v-0.5c0.5,0,0.9-0.1,1.1-0.1
		c0.3-0.1,0.4-0.2,0.6-0.4c0.1-0.2,0.2-0.4,0.2-0.7v-8.3c0-0.4-0.1-0.7-0.1-0.9c-0.1-0.2-0.3-0.3-0.5-0.4c-0.2-0.1-0.6-0.1-1.2-0.1
		v-0.5h9.9l1,2.7h-0.6c-0.3-0.4-0.7-0.8-1.2-1.1c-0.5-0.3-1-0.6-1.6-0.8c-0.6-0.2-1.2-0.3-1.8-0.3c-0.5,0-0.9,0.1-1.1,0.2
		c-0.3,0.1-0.4,0.3-0.5,0.5c-0.1,0.2-0.1,0.5-0.1,0.8v3.6h1.7c1.5,0,2.2-0.7,2.2-2h0.6v4.4h-0.5c-0.1-0.7-0.3-1.2-0.6-1.5
		s-0.8-0.5-1.4-0.5H68.2z M66.4,87.6v8.1c0,0.4,0,0.7-0.1,0.9c-0.1,0.2-0.2,0.3-0.4,0.5c0.5,0,0.8-0.1,0.9-0.4
		c0.1-0.2,0.2-0.6,0.2-1.2v-8.1c0-0.5-0.1-0.8-0.2-0.9c-0.2-0.2-0.4-0.2-0.9-0.2c0.2,0.1,0.4,0.3,0.4,0.4S66.4,87.2,66.4,87.6
		 M72,92.3v-1.6c-0.2,0.4-0.6,0.6-1.2,0.8c0.3,0.1,0.5,0.2,0.7,0.3S71.9,92,72,92.3 M73.3,86.2h-1.5c0.4,0.1,0.8,0.3,1.1,0.5
		s0.7,0.4,1,0.7L73.3,86.2z M73.7,97.1l0.6-1.5c-0.3,0.4-0.6,0.6-0.9,0.8s-0.6,0.4-1.1,0.7H73.7z"/>
	<path d="M81.2,93.3h0.6c0.3,0.9,0.7,1.6,1.1,2.2c0.4,0.6,0.9,1,1.4,1.3c0.5,0.3,1,0.4,1.6,0.4c0.7,0,1.3-0.2,1.8-0.7
		c0.5-0.4,0.7-1,0.7-1.7c0-0.6-0.2-1.1-0.5-1.5c-0.3-0.4-0.7-0.6-1.2-0.7c-0.5-0.1-1.1-0.3-1.8-0.4c-0.7-0.1-1.3-0.2-1.6-0.3
		c-0.5-0.2-0.9-0.4-1.2-0.7c-0.3-0.3-0.6-0.6-0.8-1.1c-0.2-0.4-0.3-0.8-0.3-1.3c0-0.4,0.1-0.9,0.2-1.3c0.2-0.4,0.4-0.8,0.7-1.1
		s0.6-0.6,1-0.8c0.4-0.2,0.9-0.3,1.4-0.3c0.4,0,0.8,0.1,1.3,0.2c0.5,0.1,0.9,0.2,1.1,0.2c0.3,0,0.6-0.1,0.9-0.2h0.6l0.4,3.4h-0.6
		c-0.5-1-1.1-1.8-1.7-2.3c-0.6-0.5-1.3-0.8-2.1-0.8c-0.4,0-0.8,0.1-1.1,0.3c-0.3,0.2-0.6,0.4-0.8,0.8c-0.2,0.3-0.3,0.7-0.3,1.1
		c0,0.6,0.2,1,0.6,1.3c0.4,0.3,0.9,0.5,1.7,0.7c0.7,0.2,1.4,0.3,2,0.4c0.6,0.1,1.1,0.2,1.4,0.4c0.6,0.3,1.1,0.7,1.5,1.3
		c0.4,0.6,0.5,1.2,0.5,1.9c0,0.7-0.2,1.3-0.5,1.9c-0.3,0.6-0.8,1-1.4,1.4c-0.6,0.3-1.2,0.5-2,0.5c-0.4,0-0.7,0-0.9-0.1
		c-0.2-0.1-0.6-0.2-1.1-0.4c-0.5-0.2-0.9-0.3-1.2-0.3c-0.4,0-0.8,0.2-1.1,0.5h-0.5V93.3z M81.5,88c-0.1,0.4-0.1,0.8-0.1,1
		c0,0.3,0,0.6,0.2,0.9c0.1,0.3,0.2,0.6,0.4,0.8s0.4,0.5,0.7,0.6c0.3,0.2,0.7,0.4,1.1,0.5c0.4,0.1,1,0.2,1.7,0.3
		c0.8,0.1,1.3,0.2,1.6,0.4c0.5,0.2,1,0.5,1.2,0.9c0.3,0.4,0.4,0.9,0.4,1.4c0,0.4-0.1,0.8-0.3,1.3c0.5-0.5,0.7-1,0.7-1.7
		c0-0.7-0.2-1.2-0.5-1.6c-0.3-0.4-0.8-0.7-1.3-0.8c-0.5-0.2-1.2-0.3-2-0.5c-0.9-0.2-1.3-0.2-1.3-0.2c-0.8-0.2-1.4-0.6-1.8-1.1
		c-0.4-0.5-0.6-1.1-0.6-1.8c0-0.1,0-0.2,0-0.3C81.5,88.1,81.5,88,81.5,88 M81.5,94.9v2.2c0.2-0.2,0.3-0.3,0.4-0.4s0.3-0.1,0.6-0.1
		c-0.2-0.2-0.3-0.4-0.4-0.5c-0.1-0.1-0.2-0.3-0.3-0.5C81.7,95.5,81.6,95.2,81.5,94.9 M87.8,87.9l-0.3-1.6c-0.2,0.1-0.4,0.1-0.6,0.1
		c-0.2,0-0.4,0-0.7-0.1c0.2,0.1,0.4,0.3,0.6,0.5c0.2,0.2,0.3,0.4,0.5,0.6C87.6,87.7,87.7,87.8,87.8,87.9"/>
	<path d="M94.8,85.8h10.6l0.6,2.8h-0.6c-0.4-0.7-0.9-1.2-1.3-1.6c-0.5-0.3-0.9-0.5-1.3-0.6c-0.4-0.1-1-0.1-1.6-0.1v9.5
		c0,0.4,0.1,0.6,0.2,0.8c0.1,0.2,0.3,0.3,0.6,0.4s0.6,0.1,1.1,0.1v0.5h-5.9v-0.5c0.5,0,0.9,0,1.1-0.1c0.3-0.1,0.5-0.2,0.6-0.4
		s0.2-0.5,0.2-1v-9.4c-0.6,0-1.1,0.1-1.6,0.2c-0.4,0.1-0.8,0.3-1.1,0.5c-0.3,0.2-0.5,0.4-0.7,0.6c-0.2,0.2-0.5,0.6-0.9,1h-0.5
		L94.8,85.8z M96.3,86.2H95l-0.3,1.4c0.3-0.4,0.5-0.7,0.7-0.8S95.9,86.4,96.3,86.2 M99.8,95.4v-8.2c0-0.3,0-0.6-0.1-0.7
		c-0.1-0.2-0.2-0.2-0.4-0.3v9.5c0,0.3,0,0.6-0.1,0.8c-0.1,0.2-0.2,0.4-0.5,0.5h0.2c0.4,0,0.7-0.1,0.8-0.4
		C99.8,96.5,99.8,96,99.8,95.4 M105.1,87.6l-0.4-1.3h-1.6c0.4,0.1,0.8,0.3,1.1,0.5C104.5,87,104.8,87.2,105.1,87.6"/>
	<path d="M118.1,95.5l-0.9-2.4h-4l-0.6,1.4c-0.1,0.4-0.2,0.7-0.2,1.1c0,0.4,0.1,0.7,0.4,1c0.2,0.3,0.6,0.4,1,0.5v0.5h-3.9v-0.5
		c0.9-0.1,1.6-0.9,2.1-2.2l2.9-7.4c-0.2-0.3-0.3-0.4-0.5-0.5c-0.2-0.1-0.4-0.2-0.7-0.2v-0.4l2-0.7h0.8l3.9,9.9
		c0.2,0.6,0.4,0.9,0.7,1.1s0.6,0.3,1,0.4v0.5h-5v-0.5c0.4,0,0.8-0.1,1-0.2s0.3-0.3,0.3-0.5C118.4,96.2,118.3,95.9,118.1,95.5
		 M110.8,97.1h1.6c-0.4-0.3-0.5-0.6-0.5-1c0-0.1,0-0.2,0-0.3c-0.2,0.3-0.3,0.5-0.5,0.7S111.1,96.9,110.8,97.1 M113.4,92.6h3.5
		l-1.8-4.5L113.4,92.6z M118.9,95.2l-3-7.6c-0.1-0.4-0.3-0.6-0.5-0.8c-0.2-0.2-0.4-0.2-0.6-0.2c-0.2,0-0.3,0-0.4,0
		c0.3,0.1,0.5,0.3,0.6,0.4c0.1,0.2,0.3,0.4,0.4,0.8l3,7.6c0.2,0.4,0.3,0.8,0.3,1c0,0.2,0,0.3-0.1,0.4s-0.2,0.2-0.4,0.3h0.2
		c0.3,0,0.5-0.1,0.6-0.2s0.2-0.3,0.2-0.5C119.2,96.1,119.1,95.7,118.9,95.2"/>
	<path d="M126.6,85.8h10.6l0.6,2.8h-0.6c-0.4-0.7-0.9-1.2-1.3-1.6s-0.9-0.5-1.3-0.6c-0.4-0.1-1-0.1-1.6-0.1v9.5
		c0,0.4,0.1,0.6,0.2,0.8c0.1,0.2,0.3,0.3,0.6,0.4c0.3,0.1,0.6,0.1,1.1,0.1v0.5h-5.9v-0.5c0.5,0,0.9,0,1.1-0.1
		c0.3-0.1,0.5-0.2,0.6-0.4s0.2-0.5,0.2-1v-9.4c-0.6,0-1.1,0.1-1.6,0.2c-0.4,0.1-0.8,0.3-1.1,0.5s-0.6,0.4-0.7,0.6
		c-0.2,0.2-0.5,0.6-0.9,1H126L126.6,85.8z M128.1,86.2h-1.4l-0.3,1.4c0.3-0.4,0.5-0.7,0.7-0.8S127.7,86.4,128.1,86.2 M131.6,95.4
		v-8.2c0-0.3,0-0.6-0.1-0.7c-0.1-0.2-0.2-0.2-0.4-0.3v9.5c0,0.3,0,0.6-0.1,0.8c-0.1,0.2-0.2,0.4-0.5,0.5h0.2c0.4,0,0.7-0.1,0.8-0.4
		C131.6,96.5,131.6,96,131.6,95.4 M136.9,87.6l-0.4-1.3h-1.6c0.4,0.1,0.8,0.3,1.1,0.5C136.3,87,136.6,87.2,136.9,87.6"/>
	<path d="M145.9,91.7v3.7c0,0.4,0,0.7,0.1,0.9c0.1,0.2,0.2,0.4,0.3,0.5c0.2,0.1,0.4,0.2,0.7,0.2c0.3,0,0.7,0,1.2,0
		c0.6,0,1.2-0.1,1.7-0.3c0.5-0.2,0.9-0.5,1.4-0.8c0.4-0.4,0.9-0.9,1.4-1.5h0.7l-1,3H142v-0.5c0.5,0,0.9-0.1,1.1-0.1s0.4-0.2,0.6-0.4
		c0.1-0.2,0.2-0.4,0.2-0.7v-8.3c0-0.4-0.1-0.7-0.2-0.9c-0.1-0.2-0.3-0.3-0.5-0.4c-0.2-0.1-0.6-0.1-1.2-0.1v-0.5h9.9l1,2.7h-0.6
		c-0.3-0.4-0.7-0.8-1.2-1.1c-0.5-0.3-1-0.6-1.6-0.8c-0.6-0.2-1.2-0.3-1.8-0.3c-0.5,0-0.9,0.1-1.1,0.2c-0.3,0.1-0.4,0.3-0.5,0.5
		c-0.1,0.2-0.1,0.5-0.1,0.8v3.6h1.7c1.5,0,2.2-0.7,2.2-2h0.6v4.4h-0.5c-0.1-0.7-0.3-1.2-0.6-1.5s-0.8-0.5-1.4-0.5H145.9z
		 M144.1,87.6v8.1c0,0.4,0,0.7-0.1,0.9c-0.1,0.2-0.2,0.3-0.4,0.5c0.5,0,0.8-0.1,0.9-0.4c0.1-0.2,0.2-0.6,0.2-1.2v-8.1
		c0-0.5-0.1-0.8-0.2-0.9c-0.2-0.2-0.4-0.2-0.9-0.2c0.2,0.1,0.4,0.3,0.4,0.4C144,86.9,144.1,87.2,144.1,87.6 M149.7,92.3v-1.6
		c-0.2,0.4-0.6,0.6-1.2,0.8c0.3,0.1,0.5,0.2,0.7,0.3C149.4,91.9,149.6,92,149.7,92.3 M151.1,86.2h-1.5c0.4,0.1,0.8,0.3,1.1,0.5
		s0.7,0.4,1,0.7L151.1,86.2z M151.4,97.1l0.6-1.5c-0.3,0.4-0.6,0.6-0.9,0.8c-0.3,0.2-0.6,0.4-1.1,0.7H151.4z"/>
	<path fill="#231F20" d="M111.9,37.3c0.4,0.9-0.5,1.7-1.4,1.3c-0.2-0.1-0.3-0.2-0.4-0.4c-0.4-0.9,0.5-1.7,1.4-1.3
		C111.7,37,111.8,37.1,111.9,37.3"/>
	<path d="M69.2,39.8l0.5-0.6c0.5,0.4,1,0.7,1.6,0.7c0.5,0,0.9-0.3,0.9-0.6v0c0-0.4-0.2-0.6-1.1-0.8c-1.1-0.3-1.7-0.6-1.7-1.5v0
		c0-0.9,0.7-1.5,1.7-1.5c0.7,0,1.3,0.2,1.8,0.6l-0.5,0.7c-0.5-0.3-0.9-0.5-1.4-0.5c-0.5,0-0.8,0.3-0.8,0.6v0c0,0.4,0.2,0.6,1.2,0.8
		c1.1,0.3,1.6,0.6,1.6,1.5v0c0,0.9-0.7,1.5-1.8,1.5C70.5,40.6,69.8,40.4,69.2,39.8"/>
	<path d="M74.6,38.1L74.6,38.1c0-1.4,1.1-2.6,2.6-2.6c1.5,0,2.6,1.2,2.6,2.6v0c0,1.4-1.1,2.6-2.6,2.6C75.7,40.6,74.6,39.5,74.6,38.1
		 M78.9,38.1L78.9,38.1c0-1-0.7-1.8-1.7-1.8c-1,0-1.7,0.8-1.7,1.8v0c0,1,0.7,1.8,1.7,1.8C78.2,39.8,78.9,39,78.9,38.1"/>
	<polygon points="81.6,35.5 82.4,35.5 85.1,39 85.1,35.5 86,35.5 86,40.5 85.3,40.5 82.5,37 82.5,40.5 81.6,40.5 	"/>
	<path d="M87.8,38.1L87.8,38.1c0-1.4,1.1-2.6,2.6-2.6c1.5,0,2.6,1.2,2.6,2.6v0c0,1.4-1.1,2.6-2.6,2.6C88.9,40.6,87.8,39.5,87.8,38.1
		 M92.1,38.1L92.1,38.1c0-1-0.7-1.8-1.7-1.8c-1,0-1.7,0.8-1.7,1.8v0c0,1,0.7,1.8,1.7,1.8C91.4,39.8,92.1,39,92.1,38.1"/>
	<polygon points="94.8,35.5 95.7,35.5 97.3,37.9 98.8,35.5 99.7,35.5 99.7,40.5 98.8,40.5 98.8,37 97.3,39.3 97.2,39.3 95.7,37 
		95.7,40.5 94.8,40.5 	"/>
	<path d="M103.5,35.5h0.8l2.2,5h-0.9l-0.5-1.2h-2.4l-0.5,1.2h-0.9L103.5,35.5z M104.8,38.6l-0.9-2l-0.9,2H104.8z"/>
	<path d="M116,38.1L116,38.1c0-1.4,1.1-2.6,2.6-2.6c0.9,0,1.5,0.3,2,0.8l-0.6,0.7c-0.4-0.4-0.8-0.6-1.4-0.6c-1,0-1.7,0.8-1.7,1.8v0
		c0,1,0.7,1.8,1.7,1.8c0.6,0,1-0.2,1.4-0.6l0.6,0.6c-0.5,0.5-1.1,0.9-2,0.9C117.1,40.6,116,39.5,116,38.1"/>
	<path d="M121.8,38.1L121.8,38.1c0-1.4,1.1-2.6,2.6-2.6c1.5,0,2.6,1.2,2.6,2.6v0c0,1.4-1.1,2.6-2.6,2.6S121.8,39.5,121.8,38.1
		 M126.2,38.1L126.2,38.1c0-1-0.7-1.8-1.7-1.8c-1,0-1.7,0.8-1.7,1.8v0c0,1,0.7,1.8,1.7,1.8C125.5,39.8,126.2,39,126.2,38.1"/>
	<path d="M128.8,38.4v-2.9h0.9v2.8c0,0.9,0.5,1.4,1.3,1.4c0.8,0,1.3-0.5,1.3-1.4v-2.9h0.9v2.8c0,1.5-0.8,2.2-2.2,2.2
		C129.6,40.6,128.8,39.9,128.8,38.4"/>
	<polygon points="135,35.5 135.8,35.5 138.5,39 138.5,35.5 139.4,35.5 139.4,40.5 138.6,40.5 135.9,37 135.9,40.5 135,40.5 	"/>
	<polygon points="142.6,36.4 141,36.4 141,35.5 145.1,35.5 145.1,36.4 143.5,36.4 143.5,40.5 142.6,40.5 	"/>
	<polygon points="148.2,38.6 146.2,35.5 147.2,35.5 148.6,37.7 150.1,35.5 151.1,35.5 149.1,38.6 149.1,40.5 148.2,40.5 	"/>
	<path d="M200.2,121.8H20.6V21.1h179.6V121.8z M24.4,118h172V24.9h-172V118z"/>
	<path d="M203.2,125.4H17.6v-108h185.6V125.4z M18.6,124.5h183.7V18.4H18.6V124.5z"/>
</g>
</svg>
