<svg xmlns="http://www.w3.org/2000/svg">
  <path xmlns="http://www.w3.org/2000/svg" fill="#80b516" d="M53.513,21.562c-4.036,0-7.877,0.663-11.498,2.019c-3.648,1.38-6.881,3.427-9.673,6.107   c-2.791,2.71-4.976,6.055-6.605,10.033c-1.633,3.98-2.461,8.596-2.461,13.822c0,5.249,0.802,9.866,2.377,13.818   c1.575,3.979,3.731,7.298,6.496,9.977c2.736,2.682,5.969,4.729,9.646,6.084c3.677,1.353,7.575,2.017,11.721,2.017   c4.255,0,8.234-0.664,11.966-2.017c3.676-1.355,6.882-3.402,9.564-6.084c2.707-2.679,4.834-5.997,6.356-9.977   c1.081-2.766,1.799-5.859,2.133-9.259c0.108-1.355,0.163-2.737,0.189-4.199c0-0.11,0-0.223,0-0.36   c0-5.225-0.799-9.842-2.375-13.821c-1.549-3.979-3.705-7.323-6.469-10.033c-2.735-2.681-5.971-4.728-9.674-6.108   C61.557,22.226,57.657,21.562,53.513,21.562L53.513,21.562z M35.381,52.933c0-2.903,0.443-5.501,1.355-7.739   c0.912-2.267,2.128-4.174,3.705-5.693c1.574-1.575,3.399-2.791,5.529-3.593c2.128-0.803,4.367-1.188,6.771-1.188   c1.63,0,3.095,0.109,4.425,0.305c1.296,0.247,2.43,0.523,3.369,0.8c0.966,0.249,1.742,0.553,2.348,0.857   c0.639,0.305,1.079,0.524,1.357,0.718L61.972,43.7c-1.079-0.58-2.321-1.051-3.703-1.465c-1.356-0.413-2.876-0.636-4.535-0.636   c-3.62,0-6.244,1.021-7.875,3.039c-1.631,2.019-2.433,4.783-2.433,8.292c0,1.715,0.193,3.261,0.608,4.671   c0.414,1.409,1.021,2.598,1.824,3.565c0.801,0.995,1.798,1.77,3.013,2.35c1.214,0.527,2.625,0.802,4.229,0.802   c0.854,0,1.601,0,2.21-0.028c0.636-0.027,1.188-0.109,1.657-0.193V51.99h7.849v17.191c-0.938,0.36-2.43,0.775-4.503,1.19   c-2.072,0.414-4.645,0.607-7.684,0.607c-2.6,0-4.978-0.39-7.105-1.163c-2.128-0.828-3.923-2.019-5.445-3.537   c-1.492-1.548-2.652-3.428-3.455-5.666C35.796,58.351,35.381,55.779,35.381,52.933L35.381,52.933z"/>
  <circle xmlns="http://www.w3.org/2000/svg" fill="#80b516" r="8" cx="99.25" cy="53.5">
   <animateTransform xmlns="http://www.w3.org/2000/svg" attributeName="transform" type="rotate" dur="1.8s" repeatCount="indefinite" from="0 54 54" to="360 54 54"/>
  </circle>
</svg>